cyclingleg_states
version=1
nRows=6
nColumns=55
inDegrees=yes

# SIMM Motion File Header:
name cyclingleg_states
datacolumns 55
datarows 6
otherdata 1
range 0.54407852 0.54508234
endheader
time	/jointset/bb/crank_angle/value	/jointset/bb/crank_angle/speed	/jointset/spindle/pedal_angle_r/value	/jointset/spindle/pedal_angle_r/speed	/jointset/ground_pelvis/pelvis_tilt/value	/jointset/ground_pelvis/pelvis_tilt/speed	/jointset/ground_pelvis/pelvis_list/value	/jointset/ground_pelvis/pelvis_list/speed	/jointset/ground_pelvis/pelvis_rotation/value	/jointset/ground_pelvis/pelvis_rotation/speed	/jointset/ground_pelvis/pelvis_tx/value	/jointset/ground_pelvis/pelvis_tx/speed	/jointset/ground_pelvis/pelvis_ty/value	/jointset/ground_pelvis/pelvis_ty/speed	/jointset/ground_pelvis/pelvis_tz/value	/jointset/ground_pelvis/pelvis_tz/speed	/jointset/hip_r/hip_angle_r/value	/jointset/hip_r/hip_angle_r/speed	/jointset/hip_r/hip_adduction_r/value	/jointset/hip_r/hip_adduction_r/speed	/jointset/hip_r/hip_rotation_r/value	/jointset/hip_r/hip_rotation_r/speed	/jointset/knee_r/knee_angle_r/value	/jointset/knee_r/knee_angle_r/speed	/jointset/knee_r/tib_tx_r/value	/jointset/knee_r/tib_tx_r/speed	/jointset/knee_r/tib_ty_r/value	/jointset/knee_r/tib_ty_r/speed	/jointset/tib_pat_r/pat_angle_r/value	/jointset/tib_pat_r/pat_angle_r/speed	/jointset/tib_pat_r/pat_tx_r/value	/jointset/tib_pat_r/pat_tx_r/speed	/jointset/tib_pat_r/pat_ty_r/value	/jointset/tib_pat_r/pat_ty_r/speed	/jointset/ankle_r/ankle_angle_r/value	/jointset/ankle_r/ankle_angle_r/speed	/jointset/subtalar_r/subtalar_angle_r/value	/jointset/subtalar_r/subtalar_angle_r/speed	/jointset/mtp_r/mtp_angle_r/value	/jointset/mtp_r/mtp_angle_r/speed	/forceset/bifemlh_r/activation	/forceset/bifemlh_r/fiber_length	/forceset/bifemsh_r/activation	/forceset/bifemsh_r/fiber_length	/forceset/glut_max2_r/activation	/forceset/glut_max2_r/fiber_length	/forceset/vas_int_r/activation	/forceset/vas_int_r/fiber_length	/forceset/gastroc_r/activation	/forceset/gastroc_r/fiber_length	/forceset/soleus_r/activation	/forceset/soleus_r/fiber_length	/forceset/tib_ant_r/activation	/forceset/tib_ant_r/fiber_length
      0.54407852	   -696.36560686	  -1305.14209653	    716.56223194	   1563.81571405	     -0.00000000	      0.00000000	     -0.00000000	     -0.00000000	      0.00000000	      0.00000000	     -0.10000000	     -0.00000000	     -0.05000000	     -0.00000000	     -0.04890287	     -0.07087877	    -44.95676624	    356.80558563	      7.40056010	     21.56900136	     -4.95462045	    -18.78025157	    109.50125645	     51.92237195	     -0.00618923	      0.00026510	     -0.46446692	     -0.00179753	   -214.12780683	   -103.36742282	      0.05573667	      0.00000038	     -0.02550851	     -0.00000013	    -44.87361421	   -150.14449274	     -0.00000000	     -0.00000000	     -0.00000000	     -0.00000000	     -0.04460799	      0.07245170	     -0.04460799	      0.17747976	     -0.04460799	      0.03811458	     -0.04460799	      0.09165588	     -0.04460799	      0.11422870	     -0.04460799	      0.06139787	     -0.04460799	      0.15709721
      0.54430530	   -696.66119132	  -1301.74329673	    716.91644858	   1560.17306525	     -0.00000000	      0.00000000	     -0.00000000	     -0.00000000	      0.00000000	      0.00000000	     -0.10000000	     -0.00000000	     -0.05000000	     -0.00000000	     -0.04891910	     -0.07226596	    -44.87565326	    358.55767845	      7.40538360	     20.97123156	     -4.95889910	    -18.95389033	    109.51256809	     47.84336329	     -0.00618918	      0.00024405	     -0.46446732	     -0.00165623	   -214.15032613	    -95.24690372	      0.05573667	      0.00000035	     -0.02550851	     -0.00000012	    -44.90742489	   -148.04185841	     -0.00000000	     -0.00000000	     -0.00000000	     -0.00000000	     -0.04463719	      0.07237682	     -0.04463719	      0.17746901	     -0.04463719	      0.03815992	     -0.04463719	      0.09166901	     -0.04463719	      0.11419366	     -0.04463719	      0.06136704	     -0.04463719	      0.15710699
      0.54448088	   -696.88953071	  -1299.13464247	    717.19014891	   1557.38481987	     -0.00000000	      0.00000000	     -0.00000000	     -0.00000000	      0.00000000	      0.00000000	     -0.10000000	     -0.00000000	     -0.05000000	     -0.00000000	     -0.04893188	     -0.07332053	    -44.81257781	    359.89318558	      7.40902518	     20.50774224	     -4.96223865	    -19.08433097	    109.52069263	     44.70066666	     -0.00618913	      0.00022786	     -0.46446760	     -0.00154737	   -214.16650053	    -88.99040120	      0.05573667	      0.00000033	     -0.02550851	     -0.00000012	    -44.93327500	   -146.39924752	     -0.00000000	     -0.00000000	     -0.00000000	     -0.00000000	     -0.04465980	      0.07231884	     -0.04465980	      0.17746110	     -0.04465980	      0.03828404	     -0.04465980	      0.09167869	     -0.04465980	      0.11416688	     -0.04465980	      0.06134335	     -0.04465980	      0.15711446
      0.54465647	   -697.11741395	  -1296.54774468	    717.46336238	   1554.62779733	     -0.00000000	      0.00000000	     -0.00000000	     -0.00000000	      0.00000000	      0.00000000	     -0.10000000	     -0.00000000	     -0.05000000	     -0.00000000	     -0.04894485	     -0.07435752	    -44.74926943	    361.21099242	      7.41258531	     20.04353816	     -4.96560078	    -19.21111847	    109.52826652	     41.57120501	     -0.00618910	      0.00021177	     -0.46446786	     -0.00143899	   -214.18157868	    -82.76024697	      0.05573667	      0.00000031	     -0.02550851	     -0.00000011	    -44.95883549	   -144.74282739	     -0.00000000	     -0.00000000	     -0.00000000	     -0.00000000	     -0.04468240	      0.07226086	     -0.04468240	      0.17745353	     -0.04468240	      0.03830137	     -0.04468240	      0.09168795	     -0.04468240	      0.11414040	     -0.04468240	      0.06131981	     -0.04468240	      0.15712186
      0.54486941	   -697.39316261	  -1293.43820689	    717.79404418	   1551.32247812	     -0.00000000	      0.00000000	     -0.00000000	     -0.00000000	      0.00000000	      0.00000000	     -0.10000000	     -0.00000000	     -0.05000000	     -0.00000000	     -0.04896081	     -0.07559287	    -44.67218694	    362.78517480	      7.41679330	     19.47994254	     -4.96970748	    -19.36029536	    109.53671602	     37.79420180	     -0.00618905	      0.00019240	     -0.46446815	     -0.00130820	   -214.19840001	    -75.24096243	      0.05573667	      0.00000028	     -0.02550851	     -0.00000010	    -44.98944111	   -142.71789731	     -0.00000000	     -0.00000000	     -0.00000000	     -0.00000000	     -0.04470982	      0.07219054	     -0.04470982	      0.17744483	     -0.04470982	      0.03839984	     -0.04470982	      0.09169861	     -0.04470982	      0.11410870	     -0.04470982	      0.06129148	     -0.04470982	      0.15713071
      0.54508234	   -697.66825246	  -1290.35908987	    718.12402673	   1548.05873643	     -0.00000000	      0.00000000	     -0.00000000	     -0.00000000	      0.00000000	      0.00000000	     -0.10000000	     -0.00000000	     -0.05000000	     -0.00000000	     -0.04897704	     -0.07680435	    -44.59477199	    364.33351186	      7.42088121	     18.91571848	     -4.97384541	    -19.50454684	    109.54436336	     34.03699817	     -0.00618901	      0.00017316	     -0.46446842	     -0.00117811	   -214.21362439	    -67.76109505	      0.05573667	      0.00000025	     -0.02550851	     -0.00000009	    -45.01961365	   -140.67594979	     -0.00000000	     -0.00000000	     -0.00000000	     -0.00000000	     -0.04473723	      0.07212023	     -0.04473723	      0.17743664	     -0.04473723	      0.03845295	     -0.04473723	      0.09170868	     -0.04473723	      0.11407746	     -0.04473723	      0.06126340	     -0.04473723	      0.15713943
